<svg width="1200" height="800" viewBox="0 0 1200 800" xmlns="http://www.w3.org/2000/svg">
  <defs>
    <linearGradient id="dark" x1="0" y1="0" x2="0" y2="1">
      <stop offset="0%" stop-color="#050609"/>
      <stop offset="100%" stop-color="#10131a"/>
    </linearGradient>
    <linearGradient id="banner" x1="0" y1="0" x2="1" y2="1">
      <stop offset="0%" stop-color="#ef5e47"/>
      <stop offset="100%" stop-color="#2f73ff"/>
    </linearGradient>
  </defs>
  <rect width="1200" height="800" fill="url(#dark)"/>
  <g opacity="0.18">
    <circle cx="160" cy="120" r="1.8" fill="#fff"/>
    <circle cx="260" cy="160" r="2.2" fill="#fff"/>
    <circle cx="980" cy="130" r="1.5" fill="#fff"/>
    <circle cx="840" cy="90" r="1.8" fill="#fff"/>
  </g>
  <path d="M0 500 C220 420, 360 470, 560 440 C760 410, 920 500, 1200 420 L1200 800 L0 800 Z" fill="#11131b"/>
  <path d="M0 470 C240 380, 380 430, 590 400 C820 367, 980 450, 1200 390 L1200 500 C930 555, 790 515, 600 538 C410 562, 220 548, 0 585 Z" fill="#191d29"/>
  <path d="M130 320 C320 260, 880 260, 1070 320" fill="none" stroke="#e9d6b8" stroke-opacity="0.32" stroke-width="5"/>
  <g opacity="0.95">
    <rect x="120" y="230" width="18" height="240" rx="9" fill="#f5f5f5"/>
    <rect x="1060" y="230" width="18" height="240" rx="9" fill="#f5f5f5"/>
    <path d="M90 290 L130 230 L170 290 Z" fill="#f5f5f5"/>
    <path d="M1030 290 L1070 230 L1110 290 Z" fill="#f5f5f5"/>
  </g>
  <g opacity="0.7">
    <rect x="320" y="290" width="560" height="46" rx="23" fill="url(#banner)"/>
    <rect x="360" y="303" width="440" height="18" rx="9" fill="#fff" fill-opacity="0.28"/>
  </g>
  <g opacity="0.15">
    <circle cx="220" cy="210" r="70" fill="#fff"/>
    <circle cx="960" cy="220" r="90" fill="#fff"/>
    <circle cx="740" cy="150" r="40" fill="#fff"/>
  </g>
  <g opacity="0.75">
    <circle cx="250" cy="620" r="2.2" fill="#fff"/>
    <circle cx="286" cy="606" r="1.8" fill="#fff"/>
    <circle cx="312" cy="628" r="2.6" fill="#fff"/>
    <circle cx="920" cy="612" r="2.4" fill="#fff"/>
    <circle cx="980" cy="632" r="1.9" fill="#fff"/>
    <circle cx="1030" cy="620" r="2.1" fill="#fff"/>
  </g>
</svg>
